<svg width="152" height="152" viewBox="0 0 152 152" fill="none" xmlns="http://www.w3.org/2000/svg">
<rect width="152" height="152" fill="url(#paint0_radial_37157_55124)"/>
<path d="M71.25 71.25C73.625 73.625 73.625 76 73.625 78.375L73.627 100.781C73.6267 101.507 73.0245 102.125 72.2852 102.125H67.9277V107.033L72.2461 109.433C73.0922 109.908 73.627 110.804 73.627 111.782V114H45.127V111.782C45.127 110.806 45.6548 109.907 46.5088 109.433L50.8262 107.033V102.125H46.4697C45.7299 102.125 45.1272 101.523 45.127 100.781L45.125 78.375C45.125 76 45.125 73.625 47.5 71.25H71.25ZM104.5 71.25C106.875 73.625 106.875 76 106.875 78.375L106.877 100.781C106.877 101.507 106.274 102.125 105.535 102.125H101.178V107.033L105.496 109.433C106.342 109.908 106.877 110.804 106.877 111.782V114H78.377V111.782C78.377 110.806 78.9048 109.907 79.7588 109.433L84.0762 107.033V102.125H79.7197C78.9799 102.125 78.3772 101.523 78.377 100.781L78.375 78.375C78.375 76 78.375 73.625 80.75 71.25H104.5ZM59.375 38C66.4996 42.75 71.25 54.625 71.25 66.498H47.5C47.5 54.6251 52.2498 42.7501 59.375 38ZM92.625 38C99.7496 42.75 104.5 54.625 104.5 66.498H80.75C80.75 54.6251 85.4998 42.7501 92.625 38Z" fill="white"/>
<defs>
<radialGradient id="paint0_radial_37157_55124" cx="0" cy="0" r="1" gradientUnits="userSpaceOnUse" gradientTransform="translate(76 76) rotate(90) scale(76)">
<stop stop-color="#FFCC00" stop-opacity="0.5"/>
<stop offset="1" stop-color="#FFCC00" stop-opacity="0"/>
</radialGradient>
</defs>
</svg>
